<svg class="svg-icon" style="width: 1em; height: 1em;vertical-align: middle;fill: currentColor;overflow: hidden;" viewBox="0 0 1024 1024" version="1.1" xmlns="http://www.w3.org/2000/svg"><path d="M514 114.3c-220 0-398.8 178.9-398.8 398.8S294 912 514 912s398.8-178.9 398.8-398.8S734 114.3 514 114.3z m0 755c-196.4 0-356.1-159.8-356.1-356.1S317.6 157.1 514 157.1s356.1 159.8 356.1 356.1S710.4 869.3 514 869.3z"  /><path d="M514 735.3m-42.7 0a42.7 42.7 0 1 0 85.4 0 42.7 42.7 0 1 0-85.4 0Z"  /><path d="M595.2 276.1H436c-55.6 0-100.9 45.3-100.9 100.9v74.2h42.7V377c0-32.1 26.1-58.2 58.2-58.2h159.1c32.1 0 58.2 26.1 58.2 58.2v78c0 32.1-26.1 58.2-58.2 58.2-55.6 0-100.9 45.3-100.9 100.9v47H537v-47c0-32.1 26.1-58.2 58.2-58.2 55.6 0 100.9-45.3 100.9-100.9v-78c0-55.6-45.3-100.9-100.9-100.9z"  /></svg>